<svg width="50" height="50" viewBox="0 0 50 50" fill="none" xmlns="http://www.w3.org/2000/svg">
<path d="M50 25C50 38.8071 38.8071 50 25 50C11.1929 50 0 38.8071 0 25C0 11.1929 11.1929 0 25 0C38.8071 0 50 11.1929 50 25Z" fill="#2AAAD7"/>
<path d="M11.3033 33.4637V18.3438C11.3033 18.3263 11.33 18.16 11.3833 17.845L20.4233 25.4575L11.41 33.9888C11.3389 33.7438 11.3033 33.5687 11.3033 33.4637ZM12.5033 16.795C12.6278 16.7425 12.7789 16.7162 12.9567 16.7162H37.3033C37.4633 16.7162 37.6233 16.7425 37.7833 16.795L28.7167 24.4337L27.5167 25.3787L25.1433 27.295L22.77 25.3787L21.57 24.4337L12.5033 16.795ZM12.53 35.0125L21.6233 26.4287L25.1433 29.2375L28.6633 26.4287L37.7567 35.0125C37.6144 35.065 37.4633 35.0913 37.3033 35.0913H12.9567C12.8144 35.0913 12.6722 35.065 12.53 35.0125ZM29.8633 25.4575L38.8767 17.845C38.93 18.0025 38.9567 18.1688 38.9567 18.3438V33.4637C38.9567 33.6213 38.93 33.7962 38.8767 33.9888L29.8633 25.4575Z" fill="white"/>
</svg>
